<svg width="1600" height="1100" viewBox="0 0 1600 1100" fill="none" xmlns="http://www.w3.org/2000/svg">
<rect width="1600" height="1100" fill="#09090B"/>
<path d="M319 901C457 723 632 597 785 433C898 311 988 168 1178 114C1262 90 1366 90 1461 129C1141 235 1116 661 846 790C717 852 524 854 319 901Z" fill="url(#a)"/>
<path d="M297 959C522 920 719 899 881 773C1078 621 1087 247 1407 121" stroke="rgba(255,255,255,0.22)" stroke-width="3" stroke-linecap="round"/>
<circle cx="1094" cy="274" r="126" fill="url(#b)" fill-opacity="0.8"/>
<defs>
<linearGradient id="a" x1="451" y1="814" x2="1338" y2="133" gradientUnits="userSpaceOnUse">
<stop stop-color="#111827"/>
<stop offset="0.38" stop-color="#7C3AED"/>
<stop offset="0.72" stop-color="#06B6D4"/>
<stop offset="1" stop-color="#F8FAFC"/>
</linearGradient>
<radialGradient id="b" cx="0" cy="0" r="1" gradientUnits="userSpaceOnUse" gradientTransform="translate(1094 274) rotate(90) scale(126)">
<stop stop-color="#fff" stop-opacity="0.85"/><stop offset="1" stop-color="#fff" stop-opacity="0"/>
</radialGradient>
</defs>
</svg>
