<svg width="1600" height="1100" viewBox="0 0 1600 1100" fill="none" xmlns="http://www.w3.org/2000/svg">
<rect width="1600" height="1100" fill="#0A0A10"/>
<path d="M-60 824C148 716 324 622 523 645C722 668 844 885 1047 901C1248 919 1430 756 1660 607V1160H-60V824Z" fill="url(#wave)"/>
<path d="M-40 776C187 635 362 557 565 584C771 609 904 843 1100 860C1298 879 1461 747 1640 632" stroke="#fff" stroke-opacity="0.14" stroke-width="3"/>
<path d="M104 198H1472" stroke="#fff" stroke-opacity="0.1" stroke-width="2" stroke-dasharray="8 10"/>
<path d="M104 298H1472" stroke="#fff" stroke-opacity="0.06" stroke-width="2" stroke-dasharray="8 10"/>
<path d="M104 398H1472" stroke="#fff" stroke-opacity="0.04" stroke-width="2" stroke-dasharray="8 10"/>
<circle cx="1118" cy="236" r="144" fill="url(#glow)" fill-opacity="0.65"/>
<defs>
<linearGradient id="wave" x1="243" y1="655" x2="1336" y2="1020" gradientUnits="userSpaceOnUse">
<stop stop-color="#7C3AED"/><stop offset="0.5" stop-color="#0EA5E9"/><stop offset="1" stop-color="#111827"/>
</linearGradient>
<radialGradient id="glow" cx="0" cy="0" r="1" gradientUnits="userSpaceOnUse" gradientTransform="translate(1118 236) rotate(90) scale(144)">
<stop stop-color="#fff" stop-opacity="0.65"/><stop offset="1" stop-color="#fff" stop-opacity="0"/>
</radialGradient>
</defs>
</svg>
