<svg width="1600" height="1100" viewBox="0 0 1600 1100" fill="none" xmlns="http://www.w3.org/2000/svg">
<rect width="1600" height="1100" fill="#0B0D12"/>
<path d="M443 187C619 77 821 98 970 188C1122 281 1245 447 1234 625C1220 811 1070 966 866 1002C659 1036 429 946 298 782C166 617 166 350 443 187Z" fill="url(#paint0_linear)" fill-opacity="0.86"/>
<path d="M623 240C773 167 936 190 1033 285C1131 381 1170 549 1114 693C1058 837 907 958 727 952C549 948 375 818 334 642C293 464 441 328 623 240Z" stroke="rgba(255,255,255,0.26)" stroke-width="2"/>
<circle cx="1180" cy="262" r="118" fill="url(#paint1_radial)" fill-opacity="0.84"/>
<circle cx="380" cy="837" r="136" fill="url(#paint2_radial)" fill-opacity="0.68"/>
<defs>
<linearGradient id="paint0_linear" x1="348" y1="224" x2="1168" y2="912" gradientUnits="userSpaceOnUse">
<stop stop-color="#5B21B6"/><stop offset="0.46" stop-color="#06B6D4"/><stop offset="1" stop-color="#F43F5E"/>
</linearGradient>
<radialGradient id="paint1_radial" cx="0" cy="0" r="1" gradientUnits="userSpaceOnUse" gradientTransform="translate(1180 262) rotate(90) scale(118)">
<stop stop-color="#fff" stop-opacity="0.8"/><stop offset="1" stop-color="#fff" stop-opacity="0"/>
</radialGradient>
<radialGradient id="paint2_radial" cx="0" cy="0" r="1" gradientUnits="userSpaceOnUse" gradientTransform="translate(380 837) rotate(90) scale(136)">
<stop stop-color="#06B6D4"/><stop offset="1" stop-color="#06B6D4" stop-opacity="0"/>
</radialGradient>
</defs>
</svg>
